<svg version="1.1" xmlns="http://www.w3.org/2000/svg" xmlns:xlink="http://www.w3.org/1999/xlink" width="192.62742" height="245.46245" viewBox="0,0,192.62742,245.46245"><g transform="translate(-143.6863,-103.76879)"><g data-paper-data="{&quot;isPaintingLayer&quot;:true}" fill="none" fill-rule="nonzero" stroke="none" stroke-width="none" stroke-linecap="butt" stroke-linejoin="miter" stroke-miterlimit="10" stroke-dasharray="" stroke-dashoffset="0" font-family="none" font-weight="none" font-size="none" text-anchor="none" style="mix-blend-mode: normal"><path d="M315.47956,103.94493c11.50234,0.01346 20.84761,9.37659 20.83414,20.88697l-0.34693,203.56518c-0.01345,11.49833 -9.38061,20.8476 -20.88295,20.83415l-150.56336,-0.17613c-11.50234,-0.01346 -20.8476,-9.38463 -20.83415,-20.88295l0.34693,-203.56518c0.01413,-12.07567 8.8113,-20.85229 20.88697,-20.83816z" data-paper-data="{&quot;origPos&quot;:null,&quot;origRot&quot;:0}" fill="#ffa3c1" stroke-width="1"/><path d="M307.4264,156.89546c10.42751,0.00968 18.89951,6.74321 18.8873,15.02095l-0.31451,146.39471c-0.01219,8.26907 -8.50404,14.99263 -18.93155,14.98296l-136.49402,-0.12666c-10.42751,-0.00968 -18.8995,-6.74899 -18.88731,-15.01806l0.31451,-146.39471c0.01281,-8.68427 7.98793,-14.99601 18.93519,-14.98585z" data-paper-data="{&quot;origPos&quot;:null,&quot;origRot&quot;:0}" fill="#ffffff" stroke-width="1"/><text transform="translate(165,139.39999) scale(0.76002,0.76002)" font-size="40" xml:space="preserve" data-paper-data="{&quot;origPos&quot;:null}" fill="#ffffff" fill-rule="nonzero" stroke="none" stroke-width="1" stroke-linecap="butt" stroke-linejoin="miter" stroke-miterlimit="10" stroke-dasharray="" stroke-dashoffset="0" font-family="Sans Serif" font-weight="normal" text-anchor="start" style="mix-blend-mode: normal"><tspan x="0" dy="0">死亡计算器</tspan></text><text transform="translate(422,15.4) scale(0.5,0.5)" font-size="40" xml:space="preserve" fill="#ffffff" fill-rule="nonzero" stroke="none" stroke-width="1" stroke-linecap="butt" stroke-linejoin="miter" stroke-miterlimit="10" stroke-dasharray="" stroke-dashoffset="0" font-family="Sans Serif" font-weight="normal" text-anchor="start" style="mix-blend-mode: normal"><tspan x="0" dy="0"> </tspan></text><text transform="translate(180,178.67835) scale(0.41071,0.41071)" font-size="40" xml:space="preserve" data-paper-data="{&quot;origPos&quot;:null}" fill="#000000" fill-rule="nonzero" stroke="none" stroke-width="1" stroke-linecap="butt" stroke-linejoin="miter" stroke-miterlimit="10" stroke-dasharray="" stroke-dashoffset="0" font-family="Sans Serif" font-weight="normal" text-anchor="start" style="mix-blend-mode: normal"><tspan x="0" dy="0">你的死亡时间是</tspan></text><path d="M298.56298,187.84241c8.69584,0.00563 15.76091,3.91919 15.75073,8.73026l-0.26228,7.78508c-0.01017,4.80603 -7.09179,8.71381 -15.78763,8.70818l-113.82675,-0.07362c-8.69584,-0.00563 -15.7609,-3.92255 -15.75073,-8.72858l0.26228,-7.78508c0.01068,-5.04735 6.66139,-8.71576 15.79067,-8.70986z" data-paper-data="{&quot;origPos&quot;:null,&quot;origRot&quot;:0}" fill="#46adff" stroke-width="1"/><text transform="translate(180,239.67835) scale(0.41072,0.41072)" font-size="40" xml:space="preserve" data-paper-data="{&quot;origPos&quot;:null}" fill="#000000" fill-rule="nonzero" stroke="none" stroke-width="1" stroke-linecap="butt" stroke-linejoin="miter" stroke-miterlimit="10" stroke-dasharray="" stroke-dashoffset="0" font-family="Sans Serif" font-weight="normal" text-anchor="start" style="mix-blend-mode: normal"><tspan x="0" dy="0">你的生命仅剩</tspan></text><path d="M298.56298,248.84241c8.69583,0.00563 15.7609,3.91919 15.75072,8.73026l-0.26228,7.78508c-0.01017,4.80603 -7.09179,8.7138 -15.78762,8.70818l-113.82675,-0.07362c-8.69583,-0.00563 -15.76091,-3.92255 -15.75074,-8.72858l0.26228,-7.78508c0.01068,-5.04735 6.66139,-8.71576 15.79067,-8.70986z" data-paper-data="{&quot;origPos&quot;:null,&quot;origRot&quot;:0}" fill="#46adff" stroke-width="1"/><text transform="translate(204,306.61243) scale(0.335,0.335)" font-size="40" xml:space="preserve" data-paper-data="{&quot;origPos&quot;:null}" fill="#000000" fill-rule="nonzero" stroke="none" stroke-width="1" stroke-linecap="butt" stroke-linejoin="miter" stroke-miterlimit="10" stroke-dasharray="" stroke-dashoffset="0" font-family="Sans Serif" font-weight="normal" text-anchor="start" style="mix-blend-mode: normal"><tspan x="0" dy="0">扫码测试你</tspan><tspan x="0" dy="46.15px">的死亡时间</tspan></text></g></g></svg>
